<svg width="20" height="20" viewBox="0 0 20 20" fill="none" xmlns="http://www.w3.org/2000/svg">
<path d="M3.51438 15.5685C4.50339 14.8937 5.53467 14.3921 6.6082 14.0639C7.68174 13.7356 8.81234 13.5715 10 13.5715C11.1877 13.5715 12.3183 13.7356 13.3918 14.0639C14.4653 14.3921 15.4966 14.8937 16.4856 15.5685C17.1689 14.8176 17.6874 13.9666 18.041 13.0157C18.3946 12.0647 18.5715 11.0595 18.5715 10C18.5715 7.62499 17.736 5.60266 16.0651 3.93301C14.3943 2.26337 12.3704 1.42855 9.99368 1.42855C7.61693 1.42855 5.59523 2.26337 3.92855 3.93301C2.26188 5.60266 1.42855 7.62499 1.42855 10C1.42855 11.0595 1.60536 12.0647 1.95899 13.0157C2.31262 13.9666 2.83108 14.8176 3.51438 15.5685ZM10.0003 11.7033C8.9787 11.7033 8.10968 11.3452 7.39329 10.629C6.6769 9.91282 6.3187 9.04392 6.3187 8.0223C6.3187 7.00067 6.67679 6.13166 7.39296 5.41526C8.10915 4.69887 8.97806 4.34067 9.99967 4.34067C11.0213 4.34067 11.8903 4.69876 12.6067 5.41493C13.3231 6.13113 13.6813 7.00003 13.6813 8.02164C13.6813 9.04327 13.3232 9.91229 12.607 10.6287C11.8908 11.3451 11.0219 11.7033 10.0003 11.7033ZM10.0076 20C8.62608 20 7.32777 19.7411 6.11265 19.2233C4.89752 18.7056 3.83384 17.9906 2.9216 17.0784C2.00938 16.1662 1.2944 15.1029 0.77665 13.8885C0.258883 12.6741 0 11.3738 0 9.98742C0 8.60104 0.258883 7.30487 0.77665 6.09892C1.2944 4.89294 2.00938 3.83384 2.9216 2.9216C3.83384 2.00938 4.89714 1.2944 6.1115 0.776651C7.32586 0.258884 8.62622 0 10.0126 0C11.399 0 12.6951 0.258884 13.9011 0.776651C15.1071 1.2944 16.1662 2.00938 17.0784 2.9216C17.9906 3.83384 18.7056 4.89499 19.2233 6.10507C19.7411 7.31515 20 8.61093 20 9.99242C20 11.3739 19.7411 12.6722 19.2233 13.8873C18.7056 15.1025 17.9906 16.1662 17.0784 17.0784C16.1662 17.9906 15.105 18.7056 13.8949 19.2233C12.6849 19.7411 11.3891 20 10.0076 20ZM10 18.5715C10.9735 18.5715 11.9298 18.4027 12.8688 18.0653C13.8078 17.7279 14.6619 17.245 15.4311 16.6167C14.6436 16.101 13.7909 15.7027 12.873 15.4216C11.9551 15.1405 10.9975 15 10 15C9.00252 15 8.03851 15.1342 7.10796 15.4026C6.17741 15.671 5.33104 16.0757 4.56886 16.6167C5.33809 17.245 6.19221 17.7279 7.13123 18.0653C8.07022 18.4027 9.02648 18.5715 10 18.5715ZM10 10.2748C10.6199 10.2748 11.1503 10.0543 11.5913 9.6133C12.0323 9.17231 12.2528 8.64186 12.2528 8.02197C12.2528 7.40208 12.0323 6.87164 11.5913 6.43065C11.1503 5.98968 10.6199 5.76919 10 5.76919C9.38011 5.76919 8.84967 5.98968 8.40868 6.43065C7.9677 6.87164 7.74722 7.40208 7.74722 8.02197C7.74722 8.64186 7.9677 9.17231 8.40868 9.6133C8.84967 10.0543 9.38011 10.2748 10 10.2748Z" fill="#0E100F"/>
</svg>
