<svg width="18" height="21" viewBox="0 0 18 21" fill="none" xmlns="http://www.w3.org/2000/svg">
<path fill-rule="evenodd" clip-rule="evenodd" d="M17.9451 20.375C17.9814 20.0467 18 19.713 18 19.375C18 14.4044 13.9706 10.375 9 10.375C4.02944 10.375 0 14.4044 0 19.375C0 19.713 0.0186333 20.0467 0.0549288 20.375C0.552373 15.875 4.36745 12.375 9 12.375C13.6326 12.375 17.4476 15.875 17.9451 20.375Z" fill="#0E100F"/>
<path fill-rule="evenodd" clip-rule="evenodd" d="M9 9.69995C6.525 9.69995 4.5 7.67495 4.5 5.19995C4.5 2.72495 6.525 0.699951 9 0.699951C11.475 0.699951 13.5 2.72495 13.5 5.19995C13.5 7.67495 11.475 9.69995 9 9.69995ZM6.425 5.64995C6.425 5.49995 6.425 5.34995 6.425 5.19995C6.425 5.04995 6.425 4.89995 6.425 4.74995C6.425 3.09995 6.725 1.24995 9 1.24995C11.275 1.24995 11.575 3.12495 11.575 4.77495C11.575 4.92495 11.575 5.07495 11.575 5.22495C11.575 5.37495 11.575 5.52495 11.575 5.67495C11.6 7.32495 11.3 9.19995 9 9.19995C6.725 9.17495 6.425 7.29995 6.425 5.64995Z" fill="#0E100F"/>
</svg>
