<svg width="21" height="24" viewBox="0 0 21 24" fill="none" xmlns="http://www.w3.org/2000/svg">
<path d="M16.7271 12.7632C16.6991 9.73112 19.2734 8.25602 19.3911 8.18735C17.9332 6.11487 15.6735 5.83171 14.8794 5.80913C12.9815 5.6144 11.1405 6.91639 10.1737 6.91639C9.1876 6.91639 7.6988 5.82795 6.09422 5.85993C4.0294 5.89098 2.09772 7.05656 1.03829 8.86657C-1.14811 12.5571 0.482528 17.9806 2.57727 20.9637C3.62512 22.4247 4.84954 24.0559 6.45219 23.9985C8.02011 23.9355 8.60579 23.0239 10.4979 23.0239C12.3726 23.0239 12.9226 23.9985 14.5571 23.9618C16.2399 23.9355 17.2993 22.4943 18.3105 21.0201C19.5214 19.3456 20.0077 17.6964 20.027 17.6118C19.9874 17.5986 16.759 16.3973 16.7271 12.7632Z" fill="#FDFDFC"/>
<path d="M13.6395 3.84673C14.4828 2.81849 15.0598 1.41959 14.8996 0C13.6791 0.052682 12.1527 0.823156 11.2737 1.82882C10.496 2.715 9.80126 4.16752 9.98073 5.53349C11.3518 5.63321 12.7596 4.85897 13.6395 3.84673Z" fill="#FDFDFC"/>
</svg>
