<svg width="16" height="21" viewBox="0 0 16 21" fill="none" xmlns="http://www.w3.org/2000/svg">
<path fill-rule="evenodd" clip-rule="evenodd" d="M4.09037 4.50589C4.09637 4.58078 4.10215 4.65289 4.10215 4.725C4.32715 2.6 6.15215 1.45 8.32715 1.45C10.5271 1.45 12.3271 2.6 12.5521 4.725C12.5771 4.575 12.5771 4.425 12.5771 4.25C12.5771 1.9 10.6771 0 8.32715 0C5.97715 0 4.07715 1.9 4.07715 4.25C4.07715 4.34087 4.08389 4.425 4.09037 4.50589ZM13.8272 5.07501L15.9272 17.75C16.1522 18.975 15.2022 20.075 13.9772 20.075H2.70221C1.45221 20.075 0.527208 18.975 0.727208 17.75L2.82721 5.07501H13.8272ZM3.52721 18.075H12.7272C13.8272 18.075 14.6522 17.1 14.5022 16.025L13.3772 5.82501H3.40221L2.02721 16.025C1.85221 17.1 2.42721 18.075 3.52721 18.075Z" fill="#626160"/>
</svg>
