<svg width="21" height="21" viewBox="0 0 21 21" fill="none" xmlns="http://www.w3.org/2000/svg">
<path fill-rule="evenodd" clip-rule="evenodd" d="M2.74999 13.525C5.44999 16.75 10.275 17.175 13.475 14.475C13.6478 14.3304 13.8126 14.1796 13.9694 14.0233C14.2107 14.8897 14.7935 16.5488 16 18C17.725 20.075 20.075 20.875 20.075 20.875C20.075 20.875 19.725 18.3 18 16.25C16.7639 14.7811 15.1555 13.9668 14.3431 13.6232C16.758 10.8444 16.8853 6.63386 14.45 3.72502C11.75 0.500018 6.92499 0.0750178 3.69999 2.77502C0.474993 5.47502 0.0499933 10.3 2.74999 13.525ZM4.97169 12.4642C5.02947 12.5337 5.08817 12.6044 5.14999 12.675C6.94999 14.8 10.25 16.425 13.2 13.95C16.175 11.45 14.925 7.92502 13.1 5.80002C12.9868 5.68684 12.8841 5.5632 12.7783 5.43587C12.7205 5.36632 12.6618 5.29567 12.6 5.22502C12.4868 5.11184 12.3841 4.9882 12.2783 4.86087C12.2205 4.79132 12.1618 4.72067 12.1 4.65002C10.3 2.50002 6.99999 0.900018 4.04999 3.37502C1.09999 5.85002 2.37499 9.35002 4.14999 11.525C4.26317 11.6382 4.3659 11.7618 4.47169 11.8892C4.52947 11.9587 4.58817 12.0294 4.64999 12.1C4.76317 12.2132 4.8659 12.3368 4.97169 12.4642Z" fill="#0E100F"/>
</svg>
