<svg width="24" height="24" viewBox="0 0 24 24" fill="none" xmlns="http://www.w3.org/2000/svg">
<g clip-path="url(#clip0_470_1190)">
<path d="M23.8547 10.0244H12.3317V14.4702H18.9804C18.5591 15.9567 17.7268 17.2165 16.4639 18.0672C15.3635 18.8086 13.9361 19.2396 12.1692 19.2396C9.01223 19.2396 6.33387 17.1608 5.39249 14.2791C5.15825 13.5625 5.03148 12.7963 5.03148 12C5.03148 11.2037 5.15825 10.4376 5.39249 9.72104C6.33387 6.8392 9.01207 4.76043 12.1692 4.76043C14.1042 4.76043 15.7566 5.43216 16.9827 6.54124L20.4319 3.21802C18.3739 1.2214 15.5284 0 12.1692 0C7.54809 0 3.37664 2.68723 1.33024 6.60497C0.483032 8.2269 0 10.0597 0 12C0 13.9403 0.483033 15.7731 1.33008 17.395C3.37664 21.3128 7.54809 24 12.1692 24C15.7702 24 18.5203 22.9202 20.4588 21.1313C22.2915 19.4402 23.3986 17.1152 23.8131 14.4702C23.938 13.673 24 12.8467 24 12C24 11.327 23.9506 10.6672 23.8547 10.0244Z" fill="#FDFDFC"/>
</g>
<defs>
<clipPath id="clip0_470_1190">
<rect width="24" height="24" fill="white"/>
</clipPath>
</defs>
</svg>
