<svg width="34" height="25" viewBox="0 0 34 25" fill="none" xmlns="http://www.w3.org/2000/svg">
<path d="M0.772658 0C0.351272 0 0 0.351286 0 0.772656V21.6364C0 22.0578 0.351288 22.409 0.772658 22.409H23.5802C24.6386 23.8128 26.3144 24.7273 28.2044 24.7273C31.4006 24.7273 34 22.1281 34 18.9317C34 16.7113 32.7466 14.7853 30.9091 13.8125V0.773015C30.9091 0.351629 30.5578 0.000357291 30.1365 0.000357291L0.772658 0ZM0.772658 0.772656H30.136V13.4742C29.5323 13.2605 28.8804 13.1361 28.2042 13.1361C27.6183 13.1361 27.0475 13.2272 26.5139 13.3898L20.7424 7.83601C20.5343 7.66406 20.3362 7.70859 20.187 7.84799L13.1 15.684L7.44963 10.9027C7.31383 10.7939 7.10234 10.7939 6.96674 10.9027L0.772898 15.8167L0.772658 0.772656ZM11.9773 3.86354C10.4883 3.86354 9.27286 5.07894 9.27286 6.56797C9.27286 8.05699 10.4883 9.27239 11.9773 9.27239C13.4663 9.27239 14.6817 8.05699 14.6817 6.56797C14.6817 5.07894 13.4663 3.86354 11.9773 3.86354ZM11.9773 4.6362C13.0487 4.6362 13.9091 5.49653 13.9091 6.56797C13.9091 7.6394 13.0487 8.49974 11.9773 8.49974C10.9059 8.49974 10.0455 7.6394 10.0455 6.56797C10.0455 5.49653 10.9059 4.6362 11.9773 4.6362ZM20.5014 8.66891L25.7295 13.6916C23.7664 14.6208 22.4092 16.6193 22.4092 18.9319C22.4092 19.9077 22.6578 20.8289 23.0854 21.6363H0.772759V16.7948L7.19615 11.6997L12.8828 16.5171C13.0348 16.6491 13.293 16.6321 13.4262 16.4807L20.5014 8.66891ZM28.2045 13.9093C30.983 13.9093 33.2271 16.1534 33.2271 18.9319C33.2271 21.7104 30.983 23.9546 28.2045 23.9546C25.426 23.9546 23.1818 21.7104 23.1818 18.9319C23.1818 16.1534 25.426 13.9093 28.2045 13.9093ZM28.2045 15.841C27.9912 15.841 27.818 16.014 27.818 16.2275V18.5457H25.4998C25.2865 18.5457 25.1134 18.7186 25.1134 18.9321C25.1134 19.1454 25.2863 19.3186 25.4998 19.3186H27.818V21.6368C27.818 21.8501 27.991 22.0232 28.2045 22.0232C28.4178 22.0232 28.5909 21.8503 28.5909 21.6368V19.3186H30.9091C31.1224 19.3186 31.2956 19.1456 31.2956 18.9321C31.2956 18.7188 31.1226 18.5457 30.9091 18.5457H28.5909V16.2275C28.5909 16.0142 28.418 15.841 28.2045 15.841Z" fill="#0E100F"/>
</svg>
