<svg width="21" height="21" viewBox="0 0 21 21" fill="none" xmlns="http://www.w3.org/2000/svg">
<path fill-rule="evenodd" clip-rule="evenodd" d="M11.75 0.724976L19.2 1.67498L20.275 9.24998L9.65001 19.825C8.82501 20.675 7.45001 20.675 6.60001 19.825L1.15001 14.375C0.300012 13.55 0.300012 12.175 1.15001 11.325L11.75 0.724976ZM3.00001 13L8.00001 18C8.77501 18.775 10.025 18.775 10.8 18L19.55 8.87498L18.375 2.52498L12.125 1.44998L3.00001 10.2C2.22501 10.975 2.22501 12.225 3.00001 13ZM12.05 4.52502C10.8 5.80002 10.8 7.87502 12.05 9.12502C13.325 10.4 15.4 10.4 16.65 9.12502C17.9 7.85002 17.925 5.77502 16.65 4.52502C15.375 3.27502 13.3 3.25002 12.05 4.52502ZM13.025 5.52502L12.8 5.75002C11.975 6.60002 11.175 7.70002 12.325 8.85002C13.5 10.025 14.6 9.22502 15.425 8.37502L15.65 8.15002L15.875 7.92502C16.7 7.10002 17.525 5.97502 16.35 4.82502C15.175 3.67502 14.1 4.45002 13.25 5.30002L13.025 5.52502Z" fill="#0E100F"/>
</svg>
