<svg width="22" height="20" viewBox="0 0 22 20" fill="none" xmlns="http://www.w3.org/2000/svg">
<path d="M7.81152 19.8653L6.02692 16.8576L2.63847 16.1153L2.96925 12.6269L0.673096 9.99999L2.96925 7.37309L2.63847 3.88464L6.02692 3.14234L7.81152 0.134644L11 1.48849L14.1884 0.134644L15.973 3.14234L19.3615 3.88464L19.0307 7.37309L21.3268 9.99999L19.0307 12.6269L19.3615 16.1153L15.973 16.8576L14.1884 19.8653L11 18.5115L7.81152 19.8653ZM8.44997 17.95L11 16.8692L13.5807 17.95L15 15.55L17.75 14.9192L17.5 12.1L19.35 9.99999L17.5 7.86922L17.75 5.04999L15 4.44999L13.55 2.04999L11 3.13077L8.4192 2.04999L6.99997 4.44999L4.24997 5.04999L4.49997 7.86922L2.64997 9.99999L4.49997 12.1L4.24997 14.95L6.99997 15.55L8.44997 17.95ZM11 14.7307C11.2256 14.7307 11.4166 14.6525 11.573 14.4961C11.7294 14.3397 11.8076 14.1487 11.8076 13.9231C11.8076 13.6974 11.7294 13.5064 11.573 13.35C11.4166 13.1936 11.2256 13.1154 11 13.1154C10.7743 13.1154 10.5833 13.1936 10.4269 13.35C10.2705 13.5064 10.1923 13.6974 10.1923 13.9231C10.1923 14.1487 10.2705 14.3397 10.4269 14.4961C10.5833 14.6525 10.7743 14.7307 11 14.7307ZM10.25 11.0769H11.7499V5.07692H10.25V11.0769Z" fill="#0E100F"/>
</svg>
